HIERARCHY
ROOT Hips
{
	OFFSET -0.001795 -0.223333 0.028219
	CHANNELS 6 Xposition Yposition Zposition Zrotation Yrotation Xrotation 
	JOINT LeftUpLeg
	{
		OFFSET 0.069520 -0.091406 -0.006815
		CHANNELS 3 Zrotation Yrotation Xrotation
		JOINT LeftLeg
		{
			OFFSET 0.034277 -0.375199 -0.004496
			CHANNELS 3 Zrotation Yrotation Xrotation
			JOINT LeftFoot
			{
				OFFSET -0.013596 -0.397961 -0.043693
				CHANNELS 3 Zrotation Yrotation Xrotation
				JOINT LeftToe
				{
					OFFSET 0.026358 -0.055791 0.119288
					CHANNELS 3 Zrotation Yrotation Xrotation
					End Site
					{
						OFFSET 0.000000 0.000000 0.000000
					}
				}
			}
		}
	}
	JOINT RightUpLeg
	{
		OFFSET -0.067670 -0.090522 -0.004320
		CHANNELS 3 Zrotation Yrotation Xrotation
		JOINT RightLeg
		{
			OFFSET -0.038290 -0.382569 -0.008850
			CHANNELS 3 Zrotation Yrotation Xrotation
			JOINT RightFoot
			{
				OFFSET 0.015774 -0.398415 -0.042312
				CHANNELS 3 Zrotation Yrotation Xrotation
				JOINT RightToe
				{
					OFFSET -0.025372 -0.048144 0.123348
					CHANNELS 3 Zrotation Yrotation Xrotation
					End Site
					{
						OFFSET 0.000000 0.000000 0.000000
					}
				}
			}
		}
	}
	JOINT Spine
	{
		OFFSET -0.002533 0.108963 -0.026696
		CHANNELS 3 Zrotation Yrotation Xrotation
		JOINT Spine1
		{
			OFFSET 0.005487 0.135180 0.001092
			CHANNELS 3 Zrotation Yrotation Xrotation
			JOINT Spine2
			{
				OFFSET 0.001457 0.052922 0.025425
				CHANNELS 3 Zrotation Yrotation Xrotation
				JOINT Neck
				{
					OFFSET -0.002778 0.213870 -0.042857
					CHANNELS 3 Zrotation Yrotation Xrotation
					JOINT Head
					{
						OFFSET 0.005152 0.064970 0.051349
						CHANNELS 3 Zrotation Yrotation Xrotation
						End Site
						{
							OFFSET 0.000000 0.000000 0.000000
						}
					}
				}
				JOINT LeftShoulder
				{
					OFFSET 0.078845 0.121749 -0.034090
					CHANNELS 3 Zrotation Yrotation Xrotation
					JOINT LeftArm
					{
						OFFSET 0.090977 0.030469 -0.008868
						CHANNELS 3 Zrotation Yrotation Xrotation
						JOINT LeftForeArm
						{
							OFFSET 0.259612 -0.012772 -0.027456
							CHANNELS 3 Zrotation Yrotation Xrotation
							JOINT LeftHand
							{
								OFFSET 0.249234 0.008986 -0.001171
								CHANNELS 3 Zrotation Yrotation Xrotation
								End Site
								{
									OFFSET 0.000000 0.000000 0.000000
								}
							}
						}
					}
				}
				JOINT RightShoulder
				{
					OFFSET -0.081759 0.118833 -0.038615
					CHANNELS 3 Zrotation Yrotation Xrotation
					JOINT RightArm
					{
						OFFSET -0.096012 0.032551 -0.009143
						CHANNELS 3 Zrotation Yrotation Xrotation
						JOINT RightForeArm
						{
							OFFSET -0.253742 -0.013329 -0.021401
							CHANNELS 3 Zrotation Yrotation Xrotation
							JOINT RightHand
							{
								OFFSET -0.255298 0.007772 -0.005559
								CHANNELS 3 Zrotation Yrotation Xrotation
								End Site
								{
									OFFSET 0.000000 0.000000 0.000000
								}
							}
						}
					}
				}
			}
		}
	}
}
MOTION
Frames: 13
Frame Time: 0.050000
0.000000 0.840497 0.000000 -2.268943 -0.395306 10.527395 9.815362 -0.330784 -42.884127 -10.582439 4.928141 51.824721 7.947722 16.776978 1.519365 0.000000 0.000000 0.000000 -5.436817 2.622036 -42.695203 11.855562 -5.115193 52.103200 -6.614007 -15.636038 -9.470476 0.000000 0.000000 0.000000 -5.460518 0.676507 59.484350 11.958725 -0.919437 -32.673086 2.222770 9.618074 30.541081 -2.246240 4.215442 -17.762895 0.000000 0.000000 0.000000 -37.386015 -3.262956 -5.044503 -33.503142 -1.248439 -4.366800 -1.224100 -46.414820 2.113429 0.000000 0.000000 0.000000 23.204874 4.500357 4.812758 47.353972 11.192320 -4.149429 -12.963675 37.764960 -1.103480 0.000000 0.000000 0.000000 
-0.000573 0.860409 0.001837 -3.018462 -0.902005 9.805278 9.829102 -0.233472 -39.156830 -8.914011 3.770258 48.548618 6.180527 13.163219 0.903399 0.000000 0.000000 0.000000 -3.677122 3.078946 -39.662940 11.734639 -4.541557 48.176165 -7.205252 -17.710973 -5.995880 0.000000 0.000000 0.000000 -4.441722 0.175575 55.650496 10.562317 -0.790862 -32.217411 2.370409 8.033422 30.919443 -3.926986 5.201850 -20.040658 0.000000 0.000000 0.000000 -36.685850 -0.540683 -6.072355 -33.799165 -2.354140 -4.417045 -7.570771 -46.762515 5.020170 0.000000 0.000000 0.000000 23.820006 4.432175 4.193783 48.500414 10.096856 -4.425127 -15.048529 38.347676 -1.883209 0.000000 0.000000 0.000000 
-0.000743 0.880383 0.005174 -2.116378 -1.572184 8.355036 8.672388 -0.496527 -33.451800 -9.002899 3.466736 41.646038 6.409809 13.849417 3.016828 0.000000 0.000000 0.000000 -3.769023 2.760480 -35.249391 10.701024 -3.464202 43.609434 -6.707010 -16.455106 -3.785269 0.000000 0.000000 0.000000 -2.972363 -0.410452 50.951251 8.937954 -0.821479 -29.871298 0.217456 6.689506 29.450266 -2.729155 3.900115 -13.071808 0.000000 0.000000 0.000000 -34.530314 0.328745 -5.390668 -38.306711 0.533872 -6.066813 -5.136594 -49.664230 4.480984 0.000000 0.000000 0.000000 25.612309 4.633806 3.739410 47.691017 7.822713 -5.012739 -11.711688 41.401661 -1.223679 0.000000 0.000000 0.000000 
-0.000598 0.904383 0.009313 -1.896632 -1.715005 6.798763 7.367407 -0.750582 -27.978790 -7.551725 2.429947 36.211815 5.489181 12.381355 5.035034 0.000000 0.000000 0.000000 -2.720914 2.585890 -30.113356 9.303299 -2.465099 38.486687 -6.507621 -16.181227 -0.923005 0.000000 0.000000 0.000000 -3.396662 -0.173807 47.646939 9.471925 -0.957291 -29.727591 -0.344663 6.151682 29.121820 -3.701557 4.585030 -13.272201 0.000000 0.000000 0.000000 -35.727680 1.093868 -5.886292 -37.642082 1.490503 -6.271759 -5.947333 -49.036167 4.845401 0.000000 0.000000 0.000000 25.687942 5.075354 3.742079 46.594286 6.202405 -5.453636 -11.722565 40.884053 -1.397526 0.000000 0.000000 0.000000 
-0.000246 0.925906 0.013641 -1.381922 -1.313986 5.706290 5.823978 -0.970809 -23.069847 -6.507980 1.634545 29.840973 5.317803 12.621595 8.594451 0.000000 0.000000 0.000000 -2.396055 2.102927 -24.345538 7.409024 -1.491330 31.843888 -5.350602 -13.506643 0.422720 0.000000 0.000000 0.000000 -2.881746 -0.447142 42.177497 8.259679 -0.876854 -28.465817 -0.350454 4.791177 29.371294 -3.483293 4.196265 -12.264942 0.000000 0.000000 0.000000 -33.492911 2.161127 -5.617647 -41.453966 1.781711 -7.288943 -7.516339 -49.541382 5.900790 0.000000 0.000000 0.000000 24.082253 4.198906 2.707979 48.139503 5.985513 -5.557490 -9.315834 41.834377 -0.612629 0.000000 0.000000 0.000000 
0.000035 0.942380 0.017455 -1.234071 -0.708412 4.626695 5.356672 -0.900852 -18.597700 -6.149424 1.275470 24.872569 4.329617 11.181861 9.760252 0.000000 0.000000 0.000000 -2.157040 1.800923 -20.789458 6.140337 -1.013978 28.188046 -4.266426 -11.555475 3.484491 0.000000 0.000000 0.000000 -2.680652 -0.581864 38.742297 7.629654 -0.919641 -26.876502 0.065604 4.604528 28.394964 -2.605984 3.482521 -12.935303 0.000000 0.000000 0.000000 -30.735907 2.363990 -5.348981 -45.116695 1.025758 -7.592186 -7.610455 -47.445021 5.680100 0.000000 0.000000 0.000000 21.373434 3.458371 2.137830 50.443717 5.560980 -5.631419 -7.655312 42.131586 0.027587 0.000000 0.000000 0.000000 
-0.000115 0.949213 0.019723 -1.361105 0.404186 4.162833 5.165482 -0.868342 -16.484966 -5.875652 1.051616 23.550267 3.790253 9.848995 7.324682 0.000000 0.000000 0.000000 -1.784823 1.645480 -18.804473 5.640839 -0.927600 26.299475 -4.076404 -11.255792 4.338502 0.000000 0.000000 0.000000 -2.180727 -0.826493 35.009309 7.712999 -0.949245 -26.597750 -0.155097 4.307700 27.980293 -1.789934 2.952888 -14.479491 0.000000 0.000000 0.000000 -29.518203 2.884791 -5.587509 -47.238592 1.390733 -8.051031 -8.775139 -46.332188 6.035779 0.000000 0.000000 0.000000 21.051744 3.212528 2.048063 50.793487 5.794423 -5.513361 -7.394118 41.441720 0.149054 0.000000 0.000000 0.000000 
-0.000971 0.943319 0.020135 -1.159271 1.276220 2.981553 5.427464 -0.820630 -15.768283 -6.290773 1.139995 25.516910 3.167295 7.864271 3.833470 0.000000 0.000000 0.000000 -2.048587 1.482546 -17.621595 5.693656 -1.070612 28.043529 -4.053510 -10.418360 0.871396 0.000000 0.000000 0.000000 -2.170492 -0.862392 32.931952 7.387280 -0.836785 -27.146900 0.193571 4.103908 28.816426 -1.136531 2.715928 -18.252175 0.000000 0.000000 0.000000 -29.211626 2.109992 -5.086994 -48.277946 -0.232870 -7.680746 -6.713776 -44.564013 4.947962 0.000000 0.000000 0.000000 20.213791 3.931008 2.540190 51.477432 7.016993 -5.133534 -7.842494 39.753950 0.034243 0.000000 0.000000 0.000000 
-0.002389 0.927721 0.019502 -0.857984 1.785029 0.988746 5.680654 -0.793975 -15.884479 -7.060418 1.440802 30.307231 3.453709 7.032589 -0.727870 0.000000 0.000000 0.000000 -2.351019 1.342724 -16.627338 6.002643 -1.332566 31.335242 -4.604965 -10.644944 -4.202265 0.000000 0.000000 0.000000 -2.343829 -0.827554 31.879941 6.943800 -0.802230 -26.708150 -0.016556 4.033289 28.453833 -0.764522 2.616143 -20.337221 0.000000 0.000000 0.000000 -29.877181 0.700109 -4.344438 -47.116647 -2.992349 -6.416924 -4.467575 -41.485305 3.658000 0.000000 0.000000 0.000000 21.095016 5.479011 3.518672 51.379588 8.672606 -4.471479 -10.478767 37.061466 -0.804274 0.000000 0.000000 0.000000 
-0.003965 0.913032 0.019679 -0.688853 2.079826 -0.581532 6.092602 -0.717753 -15.428051 -8.045858 1.842343 32.850419 4.189066 7.386734 -4.398469 0.000000 0.000000 0.000000 -2.471606 1.268060 -16.046072 5.986055 -1.463336 34.577573 -4.875265 -10.260714 -8.804190 0.000000 0.000000 0.000000 -2.687807 -0.710893 30.420180 6.425651 -0.629210 -27.622394 0.205394 3.465691 30.012354 -0.511863 2.499487 -22.291362 0.000000 0.000000 0.000000 -31.334313 -0.813006 -3.298613 -45.227202 -5.749171 -5.389317 -2.759457 -39.445507 2.906880 0.000000 0.000000 0.000000 21.995029 6.570941 4.157827 50.896446 10.422826 -3.951479 -10.970952 35.333598 -0.938603 0.000000 0.000000 0.000000 
-0.005173 0.911221 0.021921 -0.782925 2.341310 -2.296091 5.862749 -0.613652 -12.820611 -7.673265 1.616667 31.973428 4.654566 7.958807 -5.724953 0.000000 0.000000 0.000000 -2.036996 1.164276 -14.166647 5.941121 -1.479316 34.423884 -5.252073 -11.483224 -8.714083 0.000000 0.000000 0.000000 -2.665836 -0.696331 28.774224 6.172899 -0.579083 -27.813536 0.110636 3.165429 30.737422 -0.007688 2.141833 -22.144144 0.000000 0.000000 0.000000 -32.093999 -1.926065 -2.518230 -45.017865 -7.993463 -4.673972 -1.176912 -37.201853 2.231447 0.000000 0.000000 0.000000 22.261819 6.821503 4.306616 51.561117 11.602310 -3.580617 -11.043922 33.377848 -0.891143 0.000000 0.000000 0.000000 
-0.005729 0.924163 0.025796 -0.939866 1.975774 -2.943501 5.534445 -0.430258 -8.540044 -6.766283 1.220935 26.514091 4.272292 7.497923 -4.492743 0.000000 0.000000 0.000000 -1.458685 0.954648 -10.837281 4.900949 -0.878646 29.638235 -4.547115 -10.017380 -6.049042 0.000000 0.000000 0.000000 -2.425926 -0.626428 25.288601 6.149058 -0.676644 -26.708405 -0.265120 2.657479 30.068599 0.520958 1.585005 -20.844169 0.000000 0.000000 0.000000 -32.321846 -0.862699 -3.029926 -44.964780 -8.279209 -4.573466 -3.448881 -36.333421 2.950569 0.000000 0.000000 0.000000 21.828445 6.314824 3.758656 53.029666 11.557940 -3.481876 -9.887724 32.588563 -0.593776 0.000000 0.000000 0.000000 
-0.005901 0.943185 0.029767 -1.084080 2.126708 -2.329943 5.127058 -0.285226 -4.837188 -5.642150 0.782072 18.702289 3.295718 6.852692 -0.144266 0.000000 0.000000 0.000000 -0.944855 0.756425 -8.127649 4.351624 -0.611088 23.325713 -4.074604 -9.964731 -1.289535 0.000000 0.000000 0.000000 -2.244146 -0.553569 21.532179 6.502765 -0.665448 -27.710059 -0.840930 2.245813 30.356697 1.218728 0.986765 -19.996660 0.000000 0.000000 0.000000 -31.159100 0.217621 -3.475392 -46.201876 -7.016693 -5.220945 -6.244276 -37.199950 4.027794 0.000000 0.000000 0.000000 21.731980 4.663673 2.748761 53.705903 9.640404 -4.354202 -7.101372 33.691855 0.179496 0.000000 0.000000 0.000000 
